<svg viewBox="0 0 37 39" xmlns="http://www.w3.org/2000/svg">
    <path d="M32.5791 27.0379C30.2571 25.0519 27.9006 23.8489 25.6071 25.8319L24.2376 27.0304C23.2356 27.9004 21.3726 31.9654 14.1696 23.6794C6.96812 15.4039 11.2536 14.1154 12.2571 13.2529L13.6341 12.0529C15.9156 10.0654 15.0546 7.56338 13.4091 4.98787L12.4161 3.42788C10.7631 0.858374 8.96312 -0.829126 6.67562 1.15537L5.43962 2.23537C4.42862 2.97187 1.60262 5.36588 0.917118 9.91388C0.0921176 15.3709 2.69462 21.6199 8.65712 28.4764C14.6121 35.3359 20.4426 38.7814 25.9656 38.7214C30.5556 38.6719 33.3276 36.2089 34.1946 35.3134L35.4351 34.2319C37.7166 32.2489 36.2991 30.2299 33.9756 28.2394L32.5791 27.0379Z" />
</svg>
