<svg width="367" height="335" viewBox="0 0 367 335" fill="none" xmlns="http://www.w3.org/2000/svg">
<path d="M337.379 161.306C344.602 166.454 351.222 172.203 356.506 179.29C363.193 188.315 366.804 198.409 366.671 209.707C366.604 219.468 366.737 229.295 366.202 239.055C365.801 246.008 362.725 252.359 359.114 258.308C352.426 269.138 343.197 277.361 333.032 284.782C317.517 296.147 300.464 304.837 282.943 312.592C256.661 324.224 229.109 331.311 200.486 333.45C182.764 334.787 164.909 334.653 147.12 333.383C134.347 332.447 121.574 332.046 108.867 329.84C88.9387 326.364 69.3443 321.417 51.4218 311.924C39.8524 305.84 28.3499 299.356 18.9206 289.929C7.41806 278.431 0.396188 265.061 0.463063 248.481C0.529938 237.718 -0.00506219 226.888 2.13494 216.192C5.54556 199.613 15.2424 187.178 28.1493 176.616C39.8524 166.989 53.7624 162.176 67.6056 157.162C77.0349 153.752 86.3974 150.41 95.7599 146.866C97.5656 146.198 98.5687 146.332 100.04 147.802C102.982 150.811 105.323 154.421 108.667 157.028C110.807 159.435 112.88 161.774 115.02 164.181C119.099 168.861 123.045 173.674 127.191 178.287C128.529 179.758 129.197 181.228 129.197 183.301C129.131 207.969 129.131 232.571 129.131 257.239C128.061 257.907 126.857 258.175 125.586 258.175C125.586 234.175 125.519 210.108 125.586 186.108C125.586 183.434 124.851 181.429 123.045 179.557C119.902 176.148 116.892 172.538 113.749 169.061C110.004 164.783 106.192 160.504 102.447 156.226C101.779 163.847 101.779 171.067 101.779 178.354C101.779 206.833 101.779 235.311 101.846 263.79C85.9293 266.665 69.8793 268.203 53.6956 265.863C50.4187 265.395 46.6068 264.659 43.3968 263.657C43.3299 260.715 43.3299 257.774 43.3299 254.966C43.3299 228.225 43.3299 201.484 43.2631 174.811C43.2631 173.607 43.2631 171.869 43.2631 170.532C41.7249 171.134 40.3874 172.136 39.3843 172.872C30.2224 179.423 22.1974 187.044 16.5131 196.805C8.48806 210.576 6.68243 225.15 14.4399 239.456C19.9237 249.551 29.5537 255.902 39.0499 261.985L38.9831 261.919C39.5181 262.253 40.0531 262.52 40.5881 262.854C40.6549 262.854 40.7887 262.854 40.8556 262.854C41.0562 262.988 41.3237 263.122 41.5243 263.256C51.5556 269.406 62.4562 273.15 73.7581 276.225C79.3087 277.696 82.3849 278.698 87.5343 279.768C90.0087 280.303 90.8112 280.37 91.4131 280.57C105.724 283.512 117.628 284.581 131.605 285.383C140.031 286.052 148.457 286.587 156.884 286.319C167.584 286.921 178.284 285.851 188.984 285.651C199.55 286.253 210.852 285.651 221.217 283.579C222.622 283.378 222.555 283.177 223.625 283.244C227.102 283.445 227.504 281.172 226.902 278.698C226.367 276.693 226.701 274.754 226.434 272.749C226.099 270.141 226.969 268.537 229.577 267.4C234.258 265.328 238.672 262.721 243.019 259.98C254.187 253.027 264.419 244.738 275.186 237.317C275.186 247.412 275.319 257.573 275.186 267.668C275.119 270.476 275.988 270.81 278.396 270.008C285.551 267.601 292.841 265.662 299.796 262.52C301.668 261.651 302.471 260.648 302.471 258.509C302.404 242.531 302.404 226.487 302.404 210.509C303.541 208.571 304.945 206.966 306.55 205.429C306.55 222.142 306.684 238.788 306.617 255.501C306.617 258.309 307.085 259.111 309.827 257.506C317.25 253.161 324.874 249.284 332.096 244.738C340.054 239.791 347.411 233.908 352.292 225.685C360.05 212.448 358.913 199.078 351.691 186.042C347.411 178.354 341.191 172.337 334.504 166.721C335.239 164.916 335.841 162.844 337.379 161.306ZM352.426 251.891C352.025 252.225 351.557 252.559 351.222 252.96C343.732 261.718 334.437 268.203 324.807 274.219C308.891 284.18 291.971 291.801 274.249 298.219C252.916 305.974 230.914 310.252 208.645 313.461C196.741 315.199 184.637 314.531 172.599 314.665C143.709 314.999 114.953 313.595 86.6649 306.709C72.0193 303.166 57.7081 298.754 44.8012 290.531C32.1618 282.509 19.5893 274.487 11.6981 261.116C11.4306 260.715 11.0293 260.515 10.4274 260.983C10.4274 262.587 11.2299 264.058 11.8318 265.529C14.3062 271.679 18.9206 276.225 23.3343 280.971C38.2474 296.748 57.7081 304.704 77.5031 311.456C98.7693 318.676 121.039 321.751 143.509 322.687C157.084 323.289 170.66 322.954 184.236 323.021C204.833 323.155 224.829 320.013 244.557 314.865C266.759 309.049 288.226 301.094 308.356 289.796C322.667 281.774 336.443 272.949 347.411 260.448C349.684 258.041 351.891 255.568 352.426 251.891ZM31.6937 268.336C31.4931 268.537 31.2924 268.804 31.0918 269.005C33.8337 271.679 37.0437 273.885 40.2537 275.957C68.8762 294.743 101.043 301.695 134.614 303.701C152.604 304.771 170.66 304.436 188.716 304.169C205.502 303.901 222.02 301.762 238.404 298.353C262.613 293.339 285.685 284.916 307.687 273.684C322.065 266.398 335.239 257.306 346.876 246.141C347.946 245.139 349.216 244.203 349.551 242.531C348.146 242.398 347.678 243.267 347.009 243.802C335.774 252.827 323.804 260.916 310.696 266.866C282.809 279.501 253.852 288.793 223.357 292.737C209.982 294.475 196.541 295.01 183.032 295.278C165.31 295.679 147.655 295.746 129.933 294.676C116.224 293.874 102.715 291.935 89.2731 289.395C74.7612 286.654 60.6506 282.843 47.3424 276.225C42.1262 273.684 36.9099 271.01 31.6937 268.336Z" fill="#2998FD"/>
<path d="M131.939 285.584C117.428 284.581 107.731 284.782 93.8876 281.306C93.3526 281.172 92.617 280.971 91.9482 280.838C91.6807 280.771 91.6139 280.771 91.3464 280.637C95.6932 280.37 99.037 280.437 103.317 279.969C126.656 277.495 148.859 270.877 170.526 261.985C175.208 260.047 175.676 259.913 176.545 259.579C176.612 257.707 176.612 253.094 176.746 249.818C176.211 250.019 176.144 250.019 174.204 250.821C169.189 252.96 164.106 254.966 159.024 256.972C131.739 267.668 103.25 275.69 73.6914 276.292C62.4564 273.217 50.1514 269.139 40.1201 262.921C40.9895 263.189 42.327 263.59 43.7314 263.924C47.6101 264.793 50.887 265.595 54.1639 266.063C70.3476 268.403 86.197 266.531 102.18 263.59C110.272 262.32 117.494 260.715 125.252 258.242C127.058 257.707 128.061 257.573 129.733 257.038C131.338 256.504 132.876 255.969 133.879 255.634C147.655 251.49 158.89 246.877 172.265 241.662C175.943 240.259 175.809 240.259 176.746 239.657C176.612 167.189 176.746 89.6413 176.746 17.1739C176.746 15.9706 176.679 13.8982 176.679 12.6948C175.341 13.4302 174.405 14.1656 173.536 14.7004C166.581 18.9789 159.693 23.3243 152.804 27.6028C141.436 34.6891 130.134 41.7754 118.698 48.728C116.759 49.9313 116.424 50.1319 115.823 50.4661C115.889 85.9645 115.889 124.538 115.889 160.036C115.889 161.44 116.09 162.911 115.555 164.315C113.415 161.908 111.342 159.568 109.202 157.162C108.399 144.192 109.001 131.156 108.868 118.12C108.6 95.7248 108.667 69.1178 108.466 46.7224C109.001 46.455 109.202 46.3213 111.877 44.7169C134.949 30.7448 160.295 15.1015 183.233 0.862061C184.303 2.06539 184.035 1.73113 185.306 3.20188C198.748 19.0458 212.323 34.8228 225.564 50.8672C227.504 53.2071 226.635 52.0037 227.638 53.4745C240.21 51.3352 256.795 49.6639 269.435 50.2656C285.953 51.0009 302.07 53.8756 316.381 62.9674C324.807 68.3156 330.96 75.6693 334.972 84.7611C338.851 93.5187 342.997 102.143 346.207 111.168C349.618 120.527 348.681 130.22 346.408 139.78C344.535 147.401 341.593 154.554 337.915 161.44C336.31 162.911 335.775 165.05 334.838 166.855C332.431 170.733 330.09 174.61 327.683 178.421C321.597 188.114 314.374 196.939 306.951 205.562C305.346 207.1 303.875 208.704 302.805 210.643C293.51 219.334 285.217 229.027 275.654 237.451C264.82 244.871 254.655 253.228 243.487 260.114C239.14 262.788 234.726 265.595 230.045 267.601C229.243 267.935 229.042 268.069 227.169 269.005C227.236 271.01 227.236 276.693 227.37 278.765C227.437 280.437 227.504 281.105 227.437 282.843C226.3 283.044 222.354 283.378 220.816 283.579C220.816 279.835 220.816 276.158 220.816 271.813C210.317 277.094 199.951 281.573 189.452 285.718C178.752 285.918 168.052 286.988 157.352 286.386C162.167 284.648 166.915 282.843 171.73 281.172C173.068 280.704 174.94 280.035 176.612 279.367C176.612 275.556 176.679 272.281 176.679 270.275C166.714 274.152 153.273 278.966 143.175 282.242C139.363 283.445 136.219 284.314 131.939 285.584ZM306.216 166.722C308.69 164.582 310.228 161.708 312.168 159.167C320.059 148.538 324.74 140.783 329.555 128.482C329.89 127.68 330.692 125.273 330.893 124.404C331.026 124.003 331.294 122.198 331.227 121.129C330.625 122.131 330.291 122.934 329.89 123.869C329.087 125.541 328.218 127.012 326.813 129.418C320.594 140.248 313.438 150.41 305.948 160.371C304.544 161.975 303.14 163.579 301.668 165.184C296.586 170.131 291.503 175.078 286.488 180.092C282.609 183.902 278.061 186.911 274.651 191.189C270.571 194.599 266.626 198.209 262.413 201.418C251.445 209.774 239.809 217.195 228.106 224.415C227.036 225.083 226.701 225.351 225.498 226.22C225.698 229.228 225.698 232.303 225.966 235.713C229.978 233.239 234.191 230.699 237.936 228.225C250.91 219.668 263.951 211.111 274.851 199.813C280.335 194.599 285.886 189.451 291.236 184.17C295.048 180.426 298.86 176.682 301.802 172.203C303.34 170.398 304.811 168.593 306.216 166.722ZM301.668 187.111C296.519 192.526 291.37 197.941 285.752 202.955C281.94 206.432 278.329 210.175 274.651 213.785C273.848 214.387 273.046 214.989 272.243 215.59C259.27 225.885 245.828 235.713 231.583 244.136C229.778 245.206 227.771 246.409 226.501 247.144C226.568 248.882 226.568 250.888 226.635 253.562C226.635 256.37 227.303 256.169 229.376 255.033C238.672 249.952 247.366 243.935 255.926 237.718C262.479 232.972 269.1 228.292 274.851 222.543C284.414 213.986 293.643 205.094 302.136 195.401C303.741 193.997 305.146 192.393 306.216 190.588C314.174 181.295 321.129 171.267 327.415 160.772C332.297 152.616 335.173 145.997 337.647 136.839C338.249 134.766 338.851 130.889 338.784 128.282C338.115 129.953 337.112 132.56 336.51 134.165C334.236 140.449 331.361 145.396 327.95 151.145C321.463 162.176 313.773 172.337 305.948 182.499C304.611 183.969 303.14 185.574 301.668 187.111ZM274.918 177.953C281.271 172.805 287.558 167.457 293.108 161.373C296.051 158.164 299.194 155.022 301.2 151.011C302.604 150.543 303.073 149.273 303.675 148.07C309.158 141.318 314.308 134.365 318.922 127.012C323.068 120.326 325.609 113.173 326.278 105.218C327.482 91.3795 323.871 79.7473 312.836 70.7891C307.018 66.1095 300.465 62.9674 293.443 60.5608C272.043 53.0734 250.175 53.675 228.106 56.2154C226.166 56.4159 226.902 56.4159 225.431 56.5497C225.498 61.4298 225.364 69.0509 225.364 73.9311C225.297 93.853 225.297 113.775 225.297 133.697C225.297 160.638 225.297 187.646 225.297 214.654C226.969 214.654 227.771 213.785 228.641 213.25C235.328 208.838 242.083 204.56 248.636 199.947C257.932 193.262 266.76 186.042 274.918 177.953ZM187.914 16.238C187.914 17.3745 187.847 18.9121 187.847 19.7811C187.847 49.8645 187.847 79.881 187.847 109.964C187.847 150.276 187.847 193.663 187.78 233.908C188.917 233.44 189.385 233.172 190.522 232.637C199.55 228.225 208.578 223.947 217.673 219.735C218.743 219.267 219.746 218.732 220.616 218.264C220.482 203.156 220.549 184.571 220.616 169.462C220.683 131.825 220.683 92.2486 220.816 54.611C219.947 53.2739 219.947 53.2739 218.743 51.87C212.19 44.3158 205.636 36.6946 199.149 29.1404C195.538 24.9956 191.525 20.3828 187.914 16.238ZM187.847 254.164C188.382 253.963 188.583 253.763 188.783 253.696C198.748 248.949 208.645 244.27 218.609 239.523C219.546 239.122 219.278 239.189 219.947 238.855C219.88 236.181 219.947 232.036 219.947 229.027C209.381 234.041 199.35 238.788 189.318 243.467C188.248 243.935 188.048 244.069 187.713 244.203C187.78 246.877 187.847 251.49 187.847 254.164ZM219.746 250.554C210.585 254.765 201.958 258.91 193.264 262.721C190.923 263.724 189.719 264.258 187.579 265.395C187.513 267.2 187.446 272.481 187.579 274.62C189.586 273.885 190.321 273.484 192.461 272.615C201.824 268.737 209.113 264.726 218.409 260.582C219.546 260.047 220.214 259.378 220.148 258.108C219.947 255.768 219.88 253.428 219.746 250.554Z" fill="#FC6707"/>
<path d="M225.631 133.63C229.109 133.496 232.185 131.758 235.395 130.688C247.901 126.61 260.273 122.332 272.644 117.92C275.253 116.984 276.59 117.385 278.529 119.524C286.889 129.151 295.516 138.51 304.076 148.003C303.541 149.206 303.073 150.476 301.601 150.944C293.108 141.518 284.615 132.092 275.453 121.998C274.851 141.318 275.319 159.568 275.319 177.886C267.161 185.975 258.333 193.195 248.971 199.813C242.417 204.426 235.663 208.704 228.975 213.117C228.106 213.718 227.103 214.387 225.631 215.323C225.631 188.381 225.631 160.638 225.631 133.63Z" fill="#2998FD"/>
<path d="M275.253 199.813C264.352 211.111 251.311 219.601 238.338 228.225C234.593 230.699 230.38 233.239 226.367 235.713C226.166 232.437 226.033 228.76 225.899 226.22C227.036 225.417 227.437 225.016 228.507 224.415C240.277 217.195 251.913 209.841 262.814 201.418C267.027 198.209 270.973 194.599 275.052 191.189C275.186 194.064 275.253 196.939 275.253 199.813Z" fill="#2998FD"/>
<path d="M275.253 222.543C269.501 228.292 262.881 232.972 256.327 237.718C247.767 243.935 239.073 249.952 229.777 255.033C228.841 255.568 228.239 255.835 227.036 256.303C226.969 253.629 226.969 248.548 226.902 247.077C228.707 245.807 230.045 245.205 231.984 244.069C246.296 235.646 259.671 225.818 272.644 215.523C273.447 214.922 274.249 214.32 275.052 213.718C275.186 216.727 275.186 219.601 275.253 222.543Z" fill="#2998FD"/>
<path d="M302.537 195.401C301.735 192.66 302.471 189.852 302.069 187.111C303.541 185.574 304.945 183.969 306.416 182.432C306.483 185.173 306.55 187.914 306.617 190.654C305.547 192.459 304.142 194.064 302.537 195.401Z" fill="#2998FD"/>
<path d="M306.416 160.371C306.483 162.51 306.55 164.582 306.617 166.722C305.146 168.527 303.741 170.398 302.27 172.203C302.203 169.864 302.203 167.524 302.136 165.184C303.607 163.58 305.012 161.975 306.416 160.371Z" fill="#2998FD"/>
</svg>
