<svg width="43" height="31" viewBox="0 0 43 31" fill="none" xmlns="http://www.w3.org/2000/svg">
    <mask id="path-1-outside-1" maskUnits="userSpaceOnUse" x="0" y="0" width="43" height="31" fill="black">
        <rect fill="white" width="43" height="31"/>
        <path d="M1 4.98964C1 3.53106 1.78327 2.74458 3.3498 2.63018L9.38636 2.67308C9.7915 2.67308 10.0616 2.88757 10.1966 3.31657C10.8179 5.46154 11.5133 7.31336 12.2831 8.87204C13.0529 10.4307 14.059 12.2253 15.3014 14.2559C15.4094 14.5133 15.585 14.642 15.8281 14.642C16.0171 14.642 16.1657 14.5419 16.2737 14.3417L16.3953 13.8698L16.4358 6.44822C16.4358 5.93343 16.321 5.59024 16.0914 5.41864C15.8618 5.24704 15.4364 5.11834 14.8152 5.03254C14.3291 4.94675 14.086 4.63215 14.086 4.08876C14.086 3.97436 14.0995 3.88856 14.1265 3.83136C14.6937 1.97239 16.3142 1.0429 18.9881 1.0429L21.2569 1C22.2833 1 23.1341 1.2717 23.8093 1.81509C24.4845 2.35848 24.8221 3.21647 24.8221 4.38905V14.1272C25.0112 14.2702 25.1868 14.3417 25.3488 14.3417C25.754 14.3417 26.1051 14.0843 26.4022 13.5695C29.3732 9.16519 30.9802 6.21943 31.2233 4.73225C31.2233 4.70365 31.2503 4.63215 31.3043 4.51775C31.4934 4.08876 31.804 3.71696 32.2362 3.40237C32.6683 3.08777 33.0464 2.87327 33.3706 2.75888C33.4786 2.70168 33.6001 2.67308 33.7352 2.67308H40.0148L40.42 2.71598C40.9601 2.71598 41.3788 2.98767 41.6759 3.53106C41.7839 3.70266 41.8582 3.88856 41.8987 4.08876C41.9392 4.28895 41.9662 4.48915 41.9797 4.68935C41.9932 4.88955 42 5.00394 42 5.03254V5.33284C41.8109 6.50542 41.3315 7.75666 40.5618 9.08654C39.792 10.4164 38.8129 11.8535 37.6245 13.3979C36.4361 14.9423 35.6933 15.9576 35.3962 16.4438C35.1532 16.787 35.0316 17.1016 35.0316 17.3876C35.0316 17.6164 35.1397 17.8738 35.3557 18.1598L41.2707 26.0533C41.5949 26.5108 41.7569 27.0113 41.7569 27.5547C41.7569 28.2125 41.5138 28.7559 41.0277 29.1849C40.5415 29.6139 39.9608 29.857 39.2856 29.9142L38.5968 29.9571H32.4387C32.4117 29.9571 32.3577 29.9642 32.2767 29.9785C32.1957 29.9928 32.1416 30 32.1146 30C31.5204 30 30.9667 29.7283 30.4536 29.1849C30.2645 28.9561 28.9951 27.2687 26.6453 24.1228C26.5102 23.9226 26.3211 23.7367 26.0781 23.5651C25.97 24.0227 25.8282 24.6805 25.6527 25.5385C25.4771 26.3964 25.3488 27.0113 25.2678 27.3831L25.1462 28.1124C24.8762 29.1134 24.309 29.714 23.4447 29.9142L22.8775 29.9571H18.9071C16.6653 29.9571 14.4303 28.8703 12.2021 26.6967C9.97381 24.5232 7.96838 21.7133 6.18577 18.267C4.40316 14.8208 2.74209 10.8097 1.20257 6.23373C1.06752 5.86193 1 5.44724 1 4.98964ZM25.3488 16.1006C24.7816 16.1006 24.2684 15.9361 23.8093 15.6072C23.3501 15.2784 23.1206 14.8279 23.1206 14.2559V4.38905C23.1206 3.81706 22.9855 3.40952 22.7154 3.16642C22.4453 2.92332 21.9727 2.80178 21.2974 2.80178L18.9881 2.88757C17.8267 2.88757 16.9489 3.10207 16.3547 3.53106C17.5431 4.13166 18.1374 5.10404 18.1374 6.44822V13.9985C18.0833 14.7135 17.8132 15.307 17.3271 15.7788C16.8409 16.2507 16.3007 16.4867 15.7065 16.4867C14.8962 16.4867 14.275 16.072 13.8429 15.2426C11.7362 11.8678 10.1696 8.66469 9.14328 5.63314L8.77866 4.51775L3.39032 4.47485C3.0392 4.47485 2.84338 4.4963 2.80287 4.5392C2.76235 4.5821 2.74209 4.70365 2.74209 4.90385C2.74209 5.16124 2.7691 5.43294 2.82312 5.71893L3.67391 8.1213C5.94269 14.3274 8.40728 19.2179 11.0677 22.7929C13.7281 26.3678 16.3412 28.1553 18.9071 28.1553H22.9585C23.1206 28.1553 23.2421 28.1053 23.3231 28.0052C23.4041 27.9051 23.4717 27.712 23.5257 27.426L23.6067 26.997L24.3765 23.2219C24.5926 22.7071 24.7816 22.3639 24.9437 22.1923C25.2408 21.8777 25.5919 21.7204 25.997 21.7204C26.6453 21.7204 27.307 22.1351 27.9822 22.9645L31.4259 27.5976C31.642 27.9694 31.8715 28.1553 32.1146 28.1553H38.7994C39.6097 28.1553 40.0148 27.9408 40.0148 27.5118C40.0148 27.3688 39.9743 27.2258 39.8933 27.0828L34.0188 19.318C33.5596 18.7175 33.33 18.074 33.33 17.3876C33.33 16.7012 33.5461 16.0434 33.9783 15.4142C34.3294 14.8422 35.0114 13.8913 36.0242 12.5614C37.0371 11.2315 37.9216 9.98743 38.6779 8.82914C39.4341 7.67086 39.9338 6.61982 40.1769 5.67603L40.2984 5.11834C40.2714 5.06114 40.2579 4.9682 40.2579 4.8395C40.2579 4.7108 40.2444 4.60355 40.2174 4.51775H33.8567C33.4516 4.68935 33.1275 4.94675 32.8844 5.28994L32.6413 6.10503C31.9661 8.0784 30.197 11.1243 27.334 15.2426C26.7668 15.8146 26.1051 16.1006 25.3488 16.1006Z"/>
    </mask>
    <path d="M1 4.98964C1 3.53106 1.78327 2.74458 3.3498 2.63018L9.38636 2.67308C9.7915 2.67308 10.0616 2.88757 10.1966 3.31657C10.8179 5.46154 11.5133 7.31336 12.2831 8.87204C13.0529 10.4307 14.059 12.2253 15.3014 14.2559C15.4094 14.5133 15.585 14.642 15.8281 14.642C16.0171 14.642 16.1657 14.5419 16.2737 14.3417L16.3953 13.8698L16.4358 6.44822C16.4358 5.93343 16.321 5.59024 16.0914 5.41864C15.8618 5.24704 15.4364 5.11834 14.8152 5.03254C14.3291 4.94675 14.086 4.63215 14.086 4.08876C14.086 3.97436 14.0995 3.88856 14.1265 3.83136C14.6937 1.97239 16.3142 1.0429 18.9881 1.0429L21.2569 1C22.2833 1 23.1341 1.2717 23.8093 1.81509C24.4845 2.35848 24.8221 3.21647 24.8221 4.38905V14.1272C25.0112 14.2702 25.1868 14.3417 25.3488 14.3417C25.754 14.3417 26.1051 14.0843 26.4022 13.5695C29.3732 9.16519 30.9802 6.21943 31.2233 4.73225C31.2233 4.70365 31.2503 4.63215 31.3043 4.51775C31.4934 4.08876 31.804 3.71696 32.2362 3.40237C32.6683 3.08777 33.0464 2.87327 33.3706 2.75888C33.4786 2.70168 33.6001 2.67308 33.7352 2.67308H40.0148L40.42 2.71598C40.9601 2.71598 41.3788 2.98767 41.6759 3.53106C41.7839 3.70266 41.8582 3.88856 41.8987 4.08876C41.9392 4.28895 41.9662 4.48915 41.9797 4.68935C41.9932 4.88955 42 5.00394 42 5.03254V5.33284C41.8109 6.50542 41.3315 7.75666 40.5618 9.08654C39.792 10.4164 38.8129 11.8535 37.6245 13.3979C36.4361 14.9423 35.6933 15.9576 35.3962 16.4438C35.1532 16.787 35.0316 17.1016 35.0316 17.3876C35.0316 17.6164 35.1397 17.8738 35.3557 18.1598L41.2707 26.0533C41.5949 26.5108 41.7569 27.0113 41.7569 27.5547C41.7569 28.2125 41.5138 28.7559 41.0277 29.1849C40.5415 29.6139 39.9608 29.857 39.2856 29.9142L38.5968 29.9571H32.4387C32.4117 29.9571 32.3577 29.9642 32.2767 29.9785C32.1957 29.9928 32.1416 30 32.1146 30C31.5204 30 30.9667 29.7283 30.4536 29.1849C30.2645 28.9561 28.9951 27.2687 26.6453 24.1228C26.5102 23.9226 26.3211 23.7367 26.0781 23.5651C25.97 24.0227 25.8282 24.6805 25.6527 25.5385C25.4771 26.3964 25.3488 27.0113 25.2678 27.3831L25.1462 28.1124C24.8762 29.1134 24.309 29.714 23.4447 29.9142L22.8775 29.9571H18.9071C16.6653 29.9571 14.4303 28.8703 12.2021 26.6967C9.97381 24.5232 7.96838 21.7133 6.18577 18.267C4.40316 14.8208 2.74209 10.8097 1.20257 6.23373C1.06752 5.86193 1 5.44724 1 4.98964ZM25.3488 16.1006C24.7816 16.1006 24.2684 15.9361 23.8093 15.6072C23.3501 15.2784 23.1206 14.8279 23.1206 14.2559V4.38905C23.1206 3.81706 22.9855 3.40952 22.7154 3.16642C22.4453 2.92332 21.9727 2.80178 21.2974 2.80178L18.9881 2.88757C17.8267 2.88757 16.9489 3.10207 16.3547 3.53106C17.5431 4.13166 18.1374 5.10404 18.1374 6.44822V13.9985C18.0833 14.7135 17.8132 15.307 17.3271 15.7788C16.8409 16.2507 16.3007 16.4867 15.7065 16.4867C14.8962 16.4867 14.275 16.072 13.8429 15.2426C11.7362 11.8678 10.1696 8.66469 9.14328 5.63314L8.77866 4.51775L3.39032 4.47485C3.0392 4.47485 2.84338 4.4963 2.80287 4.5392C2.76235 4.5821 2.74209 4.70365 2.74209 4.90385C2.74209 5.16124 2.7691 5.43294 2.82312 5.71893L3.67391 8.1213C5.94269 14.3274 8.40728 19.2179 11.0677 22.7929C13.7281 26.3678 16.3412 28.1553 18.9071 28.1553H22.9585C23.1206 28.1553 23.2421 28.1053 23.3231 28.0052C23.4041 27.9051 23.4717 27.712 23.5257 27.426L23.6067 26.997L24.3765 23.2219C24.5926 22.7071 24.7816 22.3639 24.9437 22.1923C25.2408 21.8777 25.5919 21.7204 25.997 21.7204C26.6453 21.7204 27.307 22.1351 27.9822 22.9645L31.4259 27.5976C31.642 27.9694 31.8715 28.1553 32.1146 28.1553H38.7994C39.6097 28.1553 40.0148 27.9408 40.0148 27.5118C40.0148 27.3688 39.9743 27.2258 39.8933 27.0828L34.0188 19.318C33.5596 18.7175 33.33 18.074 33.33 17.3876C33.33 16.7012 33.5461 16.0434 33.9783 15.4142C34.3294 14.8422 35.0114 13.8913 36.0242 12.5614C37.0371 11.2315 37.9216 9.98743 38.6779 8.82914C39.4341 7.67086 39.9338 6.61982 40.1769 5.67603L40.2984 5.11834C40.2714 5.06114 40.2579 4.9682 40.2579 4.8395C40.2579 4.7108 40.2444 4.60355 40.2174 4.51775H33.8567C33.4516 4.68935 33.1275 4.94675 32.8844 5.28994L32.6413 6.10503C31.9661 8.0784 30.197 11.1243 27.334 15.2426C26.7668 15.8146 26.1051 16.1006 25.3488 16.1006Z"
          fill="white"/>
    <path d="M1 4.98964C1 3.53106 1.78327 2.74458 3.3498 2.63018L9.38636 2.67308C9.7915 2.67308 10.0616 2.88757 10.1966 3.31657C10.8179 5.46154 11.5133 7.31336 12.2831 8.87204C13.0529 10.4307 14.059 12.2253 15.3014 14.2559C15.4094 14.5133 15.585 14.642 15.8281 14.642C16.0171 14.642 16.1657 14.5419 16.2737 14.3417L16.3953 13.8698L16.4358 6.44822C16.4358 5.93343 16.321 5.59024 16.0914 5.41864C15.8618 5.24704 15.4364 5.11834 14.8152 5.03254C14.3291 4.94675 14.086 4.63215 14.086 4.08876C14.086 3.97436 14.0995 3.88856 14.1265 3.83136C14.6937 1.97239 16.3142 1.0429 18.9881 1.0429L21.2569 1C22.2833 1 23.1341 1.2717 23.8093 1.81509C24.4845 2.35848 24.8221 3.21647 24.8221 4.38905V14.1272C25.0112 14.2702 25.1868 14.3417 25.3488 14.3417C25.754 14.3417 26.1051 14.0843 26.4022 13.5695C29.3732 9.16519 30.9802 6.21943 31.2233 4.73225C31.2233 4.70365 31.2503 4.63215 31.3043 4.51775C31.4934 4.08876 31.804 3.71696 32.2362 3.40237C32.6683 3.08777 33.0464 2.87327 33.3706 2.75888C33.4786 2.70168 33.6001 2.67308 33.7352 2.67308H40.0148L40.42 2.71598C40.9601 2.71598 41.3788 2.98767 41.6759 3.53106C41.7839 3.70266 41.8582 3.88856 41.8987 4.08876C41.9392 4.28895 41.9662 4.48915 41.9797 4.68935C41.9932 4.88955 42 5.00394 42 5.03254V5.33284C41.8109 6.50542 41.3315 7.75666 40.5618 9.08654C39.792 10.4164 38.8129 11.8535 37.6245 13.3979C36.4361 14.9423 35.6933 15.9576 35.3962 16.4438C35.1532 16.787 35.0316 17.1016 35.0316 17.3876C35.0316 17.6164 35.1397 17.8738 35.3557 18.1598L41.2707 26.0533C41.5949 26.5108 41.7569 27.0113 41.7569 27.5547C41.7569 28.2125 41.5138 28.7559 41.0277 29.1849C40.5415 29.6139 39.9608 29.857 39.2856 29.9142L38.5968 29.9571H32.4387C32.4117 29.9571 32.3577 29.9642 32.2767 29.9785C32.1957 29.9928 32.1416 30 32.1146 30C31.5204 30 30.9667 29.7283 30.4536 29.1849C30.2645 28.9561 28.9951 27.2687 26.6453 24.1228C26.5102 23.9226 26.3211 23.7367 26.0781 23.5651C25.97 24.0227 25.8282 24.6805 25.6527 25.5385C25.4771 26.3964 25.3488 27.0113 25.2678 27.3831L25.1462 28.1124C24.8762 29.1134 24.309 29.714 23.4447 29.9142L22.8775 29.9571H18.9071C16.6653 29.9571 14.4303 28.8703 12.2021 26.6967C9.97381 24.5232 7.96838 21.7133 6.18577 18.267C4.40316 14.8208 2.74209 10.8097 1.20257 6.23373C1.06752 5.86193 1 5.44724 1 4.98964ZM25.3488 16.1006C24.7816 16.1006 24.2684 15.9361 23.8093 15.6072C23.3501 15.2784 23.1206 14.8279 23.1206 14.2559V4.38905C23.1206 3.81706 22.9855 3.40952 22.7154 3.16642C22.4453 2.92332 21.9727 2.80178 21.2974 2.80178L18.9881 2.88757C17.8267 2.88757 16.9489 3.10207 16.3547 3.53106C17.5431 4.13166 18.1374 5.10404 18.1374 6.44822V13.9985C18.0833 14.7135 17.8132 15.307 17.3271 15.7788C16.8409 16.2507 16.3007 16.4867 15.7065 16.4867C14.8962 16.4867 14.275 16.072 13.8429 15.2426C11.7362 11.8678 10.1696 8.66469 9.14328 5.63314L8.77866 4.51775L3.39032 4.47485C3.0392 4.47485 2.84338 4.4963 2.80287 4.5392C2.76235 4.5821 2.74209 4.70365 2.74209 4.90385C2.74209 5.16124 2.7691 5.43294 2.82312 5.71893L3.67391 8.1213C5.94269 14.3274 8.40728 19.2179 11.0677 22.7929C13.7281 26.3678 16.3412 28.1553 18.9071 28.1553H22.9585C23.1206 28.1553 23.2421 28.1053 23.3231 28.0052C23.4041 27.9051 23.4717 27.712 23.5257 27.426L23.6067 26.997L24.3765 23.2219C24.5926 22.7071 24.7816 22.3639 24.9437 22.1923C25.2408 21.8777 25.5919 21.7204 25.997 21.7204C26.6453 21.7204 27.307 22.1351 27.9822 22.9645L31.4259 27.5976C31.642 27.9694 31.8715 28.1553 32.1146 28.1553H38.7994C39.6097 28.1553 40.0148 27.9408 40.0148 27.5118C40.0148 27.3688 39.9743 27.2258 39.8933 27.0828L34.0188 19.318C33.5596 18.7175 33.33 18.074 33.33 17.3876C33.33 16.7012 33.5461 16.0434 33.9783 15.4142C34.3294 14.8422 35.0114 13.8913 36.0242 12.5614C37.0371 11.2315 37.9216 9.98743 38.6779 8.82914C39.4341 7.67086 39.9338 6.61982 40.1769 5.67603L40.2984 5.11834C40.2714 5.06114 40.2579 4.9682 40.2579 4.8395C40.2579 4.7108 40.2444 4.60355 40.2174 4.51775H33.8567C33.4516 4.68935 33.1275 4.94675 32.8844 5.28994L32.6413 6.10503C31.9661 8.0784 30.197 11.1243 27.334 15.2426C26.7668 15.8146 26.1051 16.1006 25.3488 16.1006Z"
          stroke="white" stroke-width="2" mask="url(#path-1-outside-1)"/>
</svg>
