<svg width="80" height="88" viewBox="0 0 80 88" fill="none" xmlns="http://www.w3.org/2000/svg">
    <g clip-path="url(#clip0)">
        <path d="M67.3685 44.1037V35.6746L70.7728 38.1723C71.4137 38.6425 72.1481 38.8776 72.8827 38.8776C73.6174 38.8776 74.352 38.6423 74.9929 38.1721C76.0572 37.3912 76.6926 36.0834 76.6926 34.6736C76.6926 33.2638 76.0572 31.956 74.9929 31.1751L66.2164 24.7358C65.7048 24.3605 65.0137 24.5135 64.6732 25.078C64.3328 25.6425 64.4716 26.4045 64.9834 26.7801L73.7599 33.2194C74.2089 33.5488 74.4664 34.0789 74.4664 34.6736C74.4664 35.2683 74.2089 35.7984 73.7599 36.1278C73.227 36.5186 72.5385 36.5186 72.0058 36.1278L66.8726 32.3616C66.8724 32.3614 66.8721 32.3613 66.872 32.3611L40.0174 12.6586L39.877 12.5555C39.8429 12.5306 39.808 12.5076 39.7728 12.4852C39.7658 12.4806 39.7589 12.4754 39.7519 12.471C39.7147 12.4479 39.6768 12.4268 39.6387 12.4068C39.6334 12.4039 39.6282 12.4005 39.6227 12.3977C39.5823 12.3767 39.5413 12.3579 39.5 12.3401C39.4967 12.3388 39.4935 12.3369 39.4901 12.3356C39.4695 12.3268 39.4483 12.3199 39.4274 12.312C38.8619 12.0978 38.23 12.1782 37.7158 12.5555L5.5867 36.1281C5.05378 36.5189 4.36519 36.5189 3.83257 36.1281C3.3836 35.7987 3.12609 35.2686 3.12609 34.6739C3.12609 34.0792 3.3836 33.5491 3.83257 33.2197L38.7963 7.56723L59.2242 22.555C59.7362 22.9305 60.4271 22.7775 60.7675 22.2128C61.1079 21.6483 60.969 20.8863 60.4572 20.5107L39.877 5.41108C39.2205 4.92939 38.3721 4.92939 37.7158 5.41108L27.2214 13.1106V11.1162H27.5401C28.3373 11.1162 28.9858 10.4009 28.9858 9.52167V5.80423C28.9858 4.925 28.3373 4.20972 27.5401 4.20972H15.7877C14.9906 4.20972 14.342 4.925 14.342 5.80423V9.52167C14.342 10.4009 14.9906 11.1162 15.7877 11.1162H16.1063V21.2655L2.59959 31.1751C1.53528 31.956 0.899902 33.2639 0.899902 34.6738C0.899902 36.0836 1.53528 37.3916 2.59959 38.1725C3.88151 39.1129 5.53792 39.1127 6.81968 38.1725L10.224 35.6748V57.3339C10.224 58.0119 10.7223 58.5616 11.337 58.5616C11.9518 58.5616 12.4501 58.0119 12.4501 57.3339V34.0415L38.7963 14.7117L65.1423 34.0415V43.31C65.0448 43.2829 64.9466 43.2589 64.8487 43.2334C64.8074 43.2226 64.7663 43.2115 64.7248 43.201C64.6147 43.1732 64.5043 43.1469 64.3939 43.1214C64.3325 43.1071 64.2707 43.0934 64.2091 43.0798C64.1069 43.0574 64.0046 43.0353 63.902 43.0147C63.8274 42.9997 63.7523 42.9862 63.6774 42.9722C63.5838 42.9548 63.4905 42.9366 63.3968 42.9207C63.2377 42.8938 63.0781 42.8693 62.9177 42.8469C62.8446 42.8366 62.7712 42.8283 62.6978 42.819C62.5938 42.8059 62.4898 42.7929 62.3853 42.7816C62.3098 42.7735 62.2343 42.7664 62.1586 42.7593C62.0538 42.7494 61.9489 42.7404 61.8436 42.7325C61.7709 42.7271 61.6981 42.7217 61.6253 42.7172C61.5105 42.7099 61.3954 42.7045 61.2801 42.6996C61.2172 42.6969 61.1545 42.6937 61.0917 42.6917C60.9236 42.6865 60.7549 42.6834 60.5858 42.6831C60.5768 42.6831 60.5676 42.6826 60.5586 42.6826C51.5674 42.6826 44.0431 49.742 42.3026 59.0993C42.0539 60.4361 41.9233 61.8198 41.9233 63.2363C41.9233 63.4091 41.9253 63.5818 41.9293 63.7543C41.9727 65.6833 42.2585 67.5471 42.754 69.3103C42.7544 69.312 42.7549 69.3138 42.7554 69.3157C42.7775 69.3945 42.8011 69.4727 42.8242 69.5511C42.9912 70.1234 43.1796 70.6879 43.3913 71.2416H37.9082V42.6593C37.9082 41.2336 36.8565 40.0739 35.5641 40.0739H19.2425C17.9499 40.0739 16.8984 41.2338 16.8984 42.6593V71.2416H12.4501V65.0274C12.4501 64.3493 11.9518 63.7997 11.337 63.7997C10.7223 63.7997 10.224 64.3493 10.224 65.0274V71.2416H5.64267C3.93962 71.2416 2.55387 72.7699 2.55387 74.6484C2.55387 76.5268 3.93946 78.0552 5.64267 78.0552H47.6585C51.0093 81.6049 55.5568 83.7903 60.5587 83.7903C70.8343 83.7903 79.1941 74.5698 79.1941 63.2365C79.1941 54.5525 74.2859 47.1092 67.3685 44.1037ZM24.9953 14.7439L18.3325 19.6322V11.1162H24.9953V14.7439ZM16.5682 6.66507H26.7596V8.66082H16.5682V6.66507ZM19.1244 42.6593C19.1244 42.5875 19.1773 42.5293 19.2423 42.5293H35.5641C35.6292 42.5293 35.682 42.5876 35.682 42.6593V71.2416H19.1244V42.6593ZM5.64267 75.5998C5.16709 75.5998 4.78006 75.1729 4.78006 74.6484C4.78006 74.1237 5.16709 73.697 5.64267 73.697H44.5142C44.8673 74.3544 45.2536 74.9896 45.6708 75.5998H5.64267ZM60.5587 81.3349C53.3788 81.3349 47.2619 76.2222 45.0418 69.1244C45.0219 69.0605 45.0022 68.9968 44.9829 68.9325C44.9592 68.8539 44.936 68.7751 44.9132 68.6962C44.8759 68.5655 44.8395 68.4344 44.8048 68.3027C44.7988 68.2801 44.7924 68.2577 44.7866 68.2351C44.5084 67.1636 44.3196 66.0628 44.2235 64.9493C44.222 64.9307 44.2206 64.9123 44.2191 64.8938C44.2062 64.74 44.1955 64.586 44.1862 64.4318C44.1838 64.3912 44.1813 64.3505 44.1792 64.3097C44.1718 64.1726 44.1662 64.0355 44.1616 63.8982C44.1601 63.8536 44.1581 63.8093 44.157 63.7646C44.1523 63.5887 44.1495 63.4126 44.1495 63.2363C44.1495 61.9889 44.2645 60.7705 44.4835 59.5935C46.0162 51.3539 52.6417 45.1379 60.5587 45.1379C60.5618 45.1379 60.565 45.1381 60.5681 45.1381C60.7669 45.1383 60.965 45.1437 61.1629 45.1516C61.2093 45.1535 61.2556 45.1551 61.3018 45.1575C61.4932 45.167 61.6842 45.1798 61.8748 45.1965C61.9214 45.2005 61.9679 45.2057 62.0144 45.2101C62.1768 45.2258 62.3389 45.2444 62.5007 45.2654C62.5452 45.2712 62.59 45.2762 62.6345 45.2823C62.8112 45.3069 62.9872 45.336 63.1629 45.3668C63.2327 45.3791 63.3022 45.3918 63.3717 45.4051C63.5368 45.4366 63.7015 45.4702 63.8656 45.5073C63.9433 45.5249 64.0205 45.5444 64.0977 45.5631C64.2031 45.5888 64.3081 45.6156 64.413 45.6436C64.5432 45.6783 64.6727 45.7146 64.8016 45.7527C64.8976 45.781 64.9934 45.8097 65.089 45.8399C65.196 45.874 65.3027 45.9089 65.409 45.9451C65.4538 45.9605 65.4985 45.9769 65.5433 45.9925C72.1616 48.3253 76.9678 55.1729 76.9678 63.2362C76.968 73.216 69.6068 81.3349 60.5587 81.3349Z"
              fill="white"/>
        <path d="M71.5678 53.82C70.9636 53.1991 70.1758 52.8736 69.3511 52.9077C68.5258 52.9401 67.7614 53.3251 67.1989 53.9917L57.7886 65.1377L54.8927 61.6625C53.7391 60.2785 51.7797 60.1874 50.5247 61.4594C49.2699 62.7316 49.1873 64.8928 50.3408 66.2769L55.4979 72.4655C56.0792 73.1629 56.9051 73.5647 57.7674 73.5677H57.7738C58.6288 73.5677 59.4535 73.1718 60.0361 72.4817L71.7233 58.6384C72.2861 57.9719 72.5798 57.1036 72.5505 56.1935C72.521 55.2834 72.172 54.4403 71.5678 53.82ZM70.0941 56.9652L58.4069 70.8086C58.2439 71.0017 58.0131 71.1125 57.7738 71.1125V72.3402L57.7711 71.1125C57.5308 71.1117 57.2996 70.9992 57.1369 70.804L51.9797 64.6154C51.6569 64.2282 51.68 63.6233 52.0311 63.2673C52.197 63.0991 52.4068 63.0162 52.6162 63.0162C52.85 63.0162 53.0832 63.1199 53.2535 63.3241L56.9636 67.7763C57.1736 68.0282 57.4694 68.1721 57.7796 68.1731C57.7809 68.1731 57.7821 68.1731 57.7833 68.1731C58.0922 68.1731 58.3873 68.0314 58.5979 67.782L68.8281 55.6646C68.9855 55.4781 69.1993 55.3705 69.4303 55.3614C69.6599 55.3526 69.8814 55.443 70.0507 55.6167C70.2198 55.7904 70.3176 56.0264 70.3257 56.2811C70.3339 56.5356 70.2516 56.7786 70.0941 56.9652Z"
              fill="white"/>
        <path d="M32.297 53.7527C31.6844 53.7527 31.188 54.3002 31.188 54.9758V57.5037C31.188 58.1793 31.6844 58.7268 32.297 58.7268C32.9095 58.7268 33.4059 58.1793 33.4059 57.5037V54.9758C33.4059 54.3002 32.9095 53.7527 32.297 53.7527Z"
              fill="white"/>
    </g>
    <defs>
        <clipPath id="clip0">
            <rect width="78.2942" height="86.3539" fill="white" transform="translate(0.899902 0.822998)"/>
        </clipPath>
    </defs>
</svg>
