<svg width="92" height="92" viewBox="0 0 92 92" fill="none" xmlns="http://www.w3.org/2000/svg">
    <path d="M32.8511 8.53458H72.098V32.0593M72.098 32.0593L84.8492 35.3267C84.8492 35.3267 85.6863 35.5446 86.1177 36.198C86.5491 36.8515 86.549 37.5049 86.549 37.5049V39.2475M72.098 32.0593L63.0393 29.4455C63.0393 29.4455 61.3138 29.01 60.6667 29.0099C60.0196 29.0098 58.9449 29.1538 57.8628 29.4455C52.2839 30.9494 36.1188 35.215 35.2157 35.7623C34.1373 36.4158 33.7059 38.6375 35.2157 39.2475C36.7254 39.8574 39.9608 40.5876 39.9608 40.5876M86.549 39.2475V57.9801M86.549 39.2475L80.5098 40.9247M86.549 57.9801L83.3137 61.2474V70.1781H90V61.2474L86.549 57.9801ZM80.5098 40.9247L60.6666 46.4356L39.9608 40.5876M80.5098 40.9247V49.2673L72.098 51.8527M39.9608 40.5876V49.2673L60.6666 55.3663L72.098 51.8527M72.098 51.8527V64.7327M13.8627 49.9207L10.8431 52.7524V34.4554M13.8627 49.9207L19.6863 45.1285L28.098 51.8527L28.5294 34.0196M13.8627 49.9207V82.5941M10.8431 34.4554C5.88237 34.4554 3.29412 28.3564 7.82339 25.0889C4.15672 26.178 2 22.475 2 20.0791C2 16.5938 4.37255 13.9802 7.60785 14.8513C5.01961 12.8911 4.72341 9.40578 7.39216 7.0099C9.76471 4.87993 12.7844 5.70302 14.9412 7.66331C14.2942 5.04955 15.5826 2 19.6863 2C24.647 2 25.0784 6.57403 24.4314 7.88096C26.8039 5.04928 30.6863 5.7029 32.4118 7.88096C33.7922 9.62353 34.1372 12.8909 31.549 15.0691C34.3529 14.1978 37.1569 16.8119 37.1569 19.8612C37.1569 21.8214 36.0785 25.3069 31.549 24.8711C33.4902 26.3958 35.2157 29.0099 32.8431 32.0593C31.2166 34.1499 28.5294 34.0196 28.5294 34.0196M10.8431 34.4554C12.5685 34.4554 14.0785 33.3661 14.9412 32.0593C14.2941 35.1087 17.098 37.7226 19.6863 37.7226C23.3529 37.7226 25.0784 34.2374 24.4314 32.0593C25.7255 33.3661 26.6471 34.0836 28.5294 34.0196M19.6863 64.7327H43.6275M50.7451 64.7327H65.4118M19.6863 73.2277H28.098M34.3529 73.2277H65.4118M65.4118 90C58.2942 90 58.0785 82.5941 58.0785 82.5941H48.804C48.804 82.5941 26.9166 82.5941 13.8627 82.5941M65.4118 90C72.5295 90 72.098 82.5941 72.098 82.5941V70.8317M65.4118 90C65.4118 90 17.9607 89.9999 13.8627 89.9999C9.76471 89.9999 5.88236 86.7327 5.66667 82.5941C7.26633 82.5941 10.2207 82.5941 13.8627 82.5941M45.7843 15.5047H66.4902M45.7843 21.6037H66.4902M19.6863 7.88096C26.5882 8.09861 31.549 13.5445 31.549 20.0791C31.549 26.6138 26.3725 31.6238 19.6863 31.6238C13 31.6238 7.82339 27.0495 7.60785 20.0791C7.3923 13.1088 12.7843 7.66331 19.6863 7.88096Z"
          stroke="white" stroke-width="3" stroke-linecap="round" stroke-linejoin="round"/>
</svg>
