<svg width="96" height="76" viewBox="0 0 96 76" fill="none" xmlns="http://www.w3.org/2000/svg">
    <path d="M13.5 29.4619L2 40.0472V49.0347L25.3966 27.8641L35.3103 35.4535L54.444 15.0818L58.9052 17.9778L60.3922 2L44.8276 6.79334L48.9914 10.1886L35.3103 25.4674L25.3966 17.9778L18.0603 25.4674M2 74H4.97414M94 74H90.8276M90.8276 74V56.4244M90.8276 74H78.1379M90.8276 50.4327V15.0818H87.4569M87.4569 15.0818V8.79057L73.2802 2L68.9181 8.79057V15.0818M87.4569 15.0818H68.9181M68.9181 15.0818H65.4483V25.4674M65.4483 74V25.4674M65.4483 74H43.2414M65.4483 74H78.1379M65.4483 25.4674H55.931L43.2414 38.749V51.3315M43.2414 74V51.3315M43.2414 74H31.9397M43.2414 51.3315L31.9397 42.344L21.3319 51.3315V62.6657M21.3319 74V62.6657M21.3319 74H31.9397M21.3319 74H12.9052M21.3319 62.6657L12.9052 57.0236L4.97414 61.6172V74M4.97414 74H12.9052M84.5819 22.3717V27.8641M78.1379 22.3717V61.6172M71.5948 56.4244V61.6172M78.1379 67.6089V74M58.9052 33.1567V40.0472M58.9052 44.4411V51.3315M48.9914 44.4411V62.6657M54.444 66.2108V74M36.9957 55.3259V61.6172M31.9397 66.2108V74M27.3793 55.3259V61.6172M12.9052 66.2108V74"
          stroke="white" stroke-width="3" stroke-linecap="round" stroke-linejoin="round"/>
</svg>
