<svg width="84" height="83" viewBox="0 0 84 83" fill="none" xmlns="http://www.w3.org/2000/svg">
    <path d="M8.89362 72.7609V81.0346H74.2553M8.89362 72.7609H67.0213M8.89362 72.7609C4.97872 72.7609 2 69.1785 2 64.7431H8.89362M67.0213 72.7609C63.0213 72.7609 59.1064 68.752 59.1064 64.8283C53.3191 64.8283 27.8723 64.7431 8.89362 64.7431M67.0213 72.7609C72.2979 72.7609 74.2553 67.2167 74.2553 64.2313M74.2553 64.2313C74.2553 61.9661 74.1591 37.6337 74.2044 18.6829M74.2553 64.2313V81.0346M74.2553 7.50911H82V18.6829M74.2553 7.50911C74.2303 10.8063 74.2141 14.621 74.2044 18.6829M74.2553 7.50911C74.2728 5.20611 72.6383 1.96484 68.1277 1.96484C64.8746 1.96484 62.8364 4.73935 62.8603 7.50911M74.2553 7.50911H62.8603M74.2044 18.6829H8.89362M74.2044 18.6829H82M74.2553 81.0346H82V54.5M8.89362 64.7431V42M8.89362 18.6829V7.50911H14.1702M8.89362 18.6829V25.3415V32M82 18.6829V45M68.7234 12.9681C64.6217 12.5611 62.8821 10.0371 62.8603 7.50911M62.8603 7.50911H57.4043M52.0426 12.9681C50.2553 12.9965 46.6638 11.9445 46.5957 7.50911M46.5957 7.50911C46.6241 5.66102 47.7532 1.96484 52.0426 1.96484C56.3319 1.96484 57.4043 5.66102 57.4043 7.50911M46.5957 7.50911H57.4043M46.5957 7.50911H41.1489M35.7872 12.9681C33.6596 12.9681 30.4255 11.2622 30.4255 7.50911M30.4255 7.50911C30.366 4.52374 32.3149 1.96484 35.7872 1.96484C39.2596 1.96484 41.1489 4.60903 41.1489 7.50911M30.4255 7.50911H41.1489M30.4255 7.50911H24.8085M14.1702 7.50911C14.3745 11.1256 17.4043 12.7975 19.1915 12.9681M14.1702 7.50911C14.1702 5.63259 15.1064 1.96484 19.1915 1.96484C23.7021 1.96484 24.8085 5.462 24.8085 7.50911M14.1702 7.50911H24.8085"
          stroke="white" stroke-width="3" stroke-linecap="round" stroke-linejoin="round"/>
    <path d="M43.3909 36.0758C43.3909 36.7619 43.2901 37.4479 43.0886 38.134C42.9038 38.82 42.6014 39.4326 42.1814 39.9716C41.7783 40.5106 41.2575 40.9517 40.6192 41.2947C39.9809 41.6377 39.2081 41.8092 38.301 41.8092C38.049 41.8092 37.6459 41.7847 37.0915 41.7357C36.554 41.7031 36.008 41.6214 35.4537 41.4907C34.9161 41.36 34.4374 41.1804 34.0174 40.9517C33.6143 40.7067 33.4127 40.3881 33.4127 39.9961C33.4127 39.7511 33.4967 39.5387 33.6647 39.3591C33.8494 39.1631 34.0762 39.065 34.345 39.065C34.513 39.065 34.6894 39.1141 34.8741 39.2121C35.2101 39.4081 35.5965 39.5959 36.0332 39.7756C36.4868 39.9553 37.0495 40.0451 37.7215 40.0451C38.427 40.0451 39.015 39.9389 39.4853 39.7266C39.9557 39.4979 40.3336 39.2039 40.6192 38.8445C40.9048 38.4688 41.1063 38.0523 41.2239 37.5949C41.3415 37.1376 41.4003 36.6639 41.4003 36.1739C41.4003 35.5695 41.3163 35.0386 41.1483 34.5812C40.9972 34.1239 40.7788 33.7482 40.4932 33.4542C40.2076 33.1601 39.8717 32.9396 39.4853 32.7926C39.0989 32.6456 38.679 32.5721 38.2254 32.5721C37.8559 32.5721 37.5199 32.6211 37.2175 32.7191C36.932 32.8008 36.6548 32.9151 36.386 33.0621C36.1004 33.2091 35.8653 33.3643 35.6805 33.5277C35.4957 33.6747 35.2773 33.7482 35.0253 33.7482C34.7398 33.7482 34.4962 33.6502 34.2946 33.4542C34.093 33.2581 34.0006 33.005 34.0174 32.6946L34.2694 25.3686C34.2862 25.0256 34.4122 24.7642 34.6474 24.5845C34.8825 24.3885 35.1429 24.2905 35.4285 24.2905H41.5011C41.7867 24.2905 42.0471 24.364 42.2822 24.511C42.5342 24.6417 42.6602 24.8786 42.6602 25.2216C42.6602 25.5483 42.5342 25.7851 42.2822 25.9321C42.0471 26.0628 41.7867 26.1282 41.5011 26.1282H36.0584L35.8569 31.4205C36.2264 31.2082 36.6128 31.0612 37.0159 30.9795C37.4191 30.8815 37.8391 30.8325 38.2758 30.8325C39.0317 30.8325 39.7205 30.955 40.342 31.2C40.9636 31.4287 41.5011 31.7717 41.9547 32.2291C42.4082 32.6701 42.761 33.2173 43.013 33.8707C43.2649 34.5241 43.3909 35.2591 43.3909 36.0758Z"
          fill="white"/>
    <path d="M36.3428 56.8233C36.3428 57.101 36.2504 57.3297 36.0656 57.5094C35.8808 57.6891 35.6457 57.7789 35.3601 57.7789C35.0745 57.7789 34.8393 57.6891 34.6546 57.5094C34.4698 57.3297 34.3774 57.101 34.3774 56.8233V46.8266H30.371L29.8166 53.5891C29.7158 54.8305 29.4303 55.8269 28.9599 56.5783C28.5063 57.3297 27.784 57.7054 26.7929 57.7054C26.5913 57.7054 26.3981 57.6972 26.2134 57.6809C26.0286 57.6809 25.8606 57.6482 25.7094 57.5829C25.575 57.5339 25.4658 57.4522 25.3818 57.3379C25.2979 57.2235 25.2559 57.0602 25.2559 56.8478C25.2559 56.5211 25.3483 56.2843 25.533 56.1373C25.7346 55.9903 25.953 55.9168 26.1882 55.9168C26.2722 55.9168 26.3226 55.9249 26.3394 55.9413C26.373 55.9413 26.4317 55.9413 26.5157 55.9413C26.9693 55.9413 27.3053 55.7616 27.5236 55.4022C27.742 55.0429 27.8848 54.4875 27.952 53.7361L28.6071 46.1651C28.6407 45.8057 28.7583 45.5607 28.9599 45.43C29.1783 45.283 29.3799 45.2095 29.5646 45.2095H35.3601C35.6457 45.2095 35.8808 45.3075 36.0656 45.5035C36.2504 45.6832 36.3428 45.9037 36.3428 46.1651V56.8233Z"
          fill="white"/>
    <path d="M44.0385 56.0883C44.576 56.0883 45.038 56.0229 45.4244 55.8923C45.8107 55.7616 46.2223 55.5982 46.659 55.4022C46.6926 55.3859 46.7346 55.3696 46.785 55.3532C46.8522 55.3369 46.9278 55.3287 47.0118 55.3287C47.2638 55.3287 47.4738 55.4186 47.6417 55.5982C47.8097 55.7616 47.8937 55.9576 47.8937 56.1863C47.8937 56.4803 47.7425 56.7335 47.4402 56.9458C47.1546 57.1419 46.7934 57.3052 46.3567 57.4359C45.9367 57.5502 45.4916 57.6319 45.0212 57.6809C44.5508 57.7462 44.1477 57.7789 43.8117 57.7789C43.1062 57.7789 42.4678 57.6809 41.8967 57.4849C41.3423 57.2725 40.872 56.9867 40.4856 56.6273C40.1161 56.2516 39.8305 55.8188 39.6289 55.3287C39.4273 54.8224 39.3265 54.2833 39.3265 53.7116V49.1298C39.3265 48.5418 39.4273 47.9946 39.6289 47.4882C39.8305 46.9818 40.1245 46.549 40.5108 46.1896C40.8972 45.8139 41.3759 45.5199 41.9471 45.3075C42.5182 45.0952 43.1818 44.989 43.9377 44.989C45.3488 44.989 46.3987 45.3484 47.0874 46.0671C47.7761 46.7858 48.1205 47.7577 48.1205 48.9828C48.1205 50.1099 47.7845 51.0001 47.1126 51.6535C46.4575 52.2905 45.374 52.609 43.8621 52.609C43.4757 52.609 43.0558 52.5927 42.6022 52.56C42.1655 52.5274 41.7287 52.4702 41.292 52.3885V53.8341C41.292 54.5202 41.5187 55.0674 41.9723 55.4757C42.4426 55.8841 43.1314 56.0883 44.0385 56.0883ZM46.1803 48.9828C46.1803 48.1824 45.9787 47.6107 45.5755 47.2677C45.1892 46.9083 44.6264 46.7286 43.8873 46.7286C43.0642 46.7286 42.4258 46.9328 41.9723 47.3412C41.5187 47.7332 41.292 48.2722 41.292 48.9583V50.8204C41.7623 50.8858 42.2579 50.9348 42.7786 50.9674C43.2994 50.9838 43.6857 50.9919 43.9377 50.9919C44.4081 50.9919 44.786 50.9348 45.0716 50.8204C45.374 50.7061 45.6091 50.5591 45.7771 50.3794C45.9451 50.1834 46.0543 49.9629 46.1047 49.7178C46.1551 49.4728 46.1803 49.2278 46.1803 48.9828Z"
          fill="white"/>
    <path d="M55.2166 56.8233C55.2166 57.101 55.1242 57.3297 54.9394 57.5094C54.7546 57.6891 54.5194 57.7789 54.2339 57.7789C53.9483 57.7789 53.7131 57.6891 53.5283 57.5094C53.3435 57.3297 53.2512 57.101 53.2512 56.8233V47.0227H50.6306C50.3786 47.0227 50.1603 46.941 49.9755 46.7776C49.8075 46.598 49.7235 46.3774 49.7235 46.1161C49.7235 45.8547 49.8075 45.6424 49.9755 45.479C50.1603 45.2994 50.3786 45.2095 50.6306 45.2095H57.8371C58.0891 45.2095 58.2991 45.2994 58.4671 45.479C58.6518 45.6424 58.7442 45.8547 58.7442 46.1161C58.7442 46.3774 58.6518 46.598 58.4671 46.7776C58.2991 46.941 58.0891 47.0227 57.8371 47.0227H55.2166V56.8233Z"
          fill="white"/>
</svg>
