<svg width="105" height="96" viewBox="0 0 105 96" fill="none" xmlns="http://www.w3.org/2000/svg">
    <g clip-path="url(#clip0)">
        <path d="M35.5638 15.1593C36.1635 15.0837 36.5833 14.5742 36.5016 14.0211C36.3738 13.1578 36.2587 12.2795 36.1589 11.4106C36.0949 10.8554 35.5545 10.4533 34.9535 10.5117C34.3515 10.5706 33.9152 11.0681 33.9788 11.6235C34.081 12.5125 34.1991 13.4111 34.3298 14.2944C34.4047 14.8013 34.8748 15.1688 35.4145 15.1688C35.4636 15.1686 35.5133 15.1656 35.5638 15.1593Z"
              fill="white"/>
        <path d="M37.2336 18.1683C37.1207 17.6198 36.546 17.2598 35.9523 17.3639C35.3576 17.468 34.9669 17.9971 35.08 18.5456C36.4523 25.2088 38.6274 31.0725 41.3696 35.5025C41.5717 35.8292 41.9416 36.0124 42.3226 36.0124C42.5067 36.0124 42.6935 35.9695 42.8649 35.8791C43.3906 35.6024 43.5734 34.9849 43.2733 34.5001C40.6497 30.2619 38.5614 24.6146 37.2336 18.1683Z"
              fill="white"/>
        <path d="M61.6238 36.1024C61.1233 35.7878 60.4413 35.9075 60.1009 36.3686C57.5812 39.7803 54.8169 41.6593 52.3178 41.6593C51.7123 41.6593 51.2217 42.112 51.2217 42.6702C51.2217 43.2284 51.7123 43.681 52.3178 43.681C55.6115 43.681 58.9294 41.5459 61.913 37.5067C62.2534 37.0455 62.1241 36.4165 61.6238 36.1024Z"
              fill="white"/>
        <path d="M69.682 10.5118C69.0794 10.4531 68.5403 10.8555 68.4765 11.4104C67.5096 19.8287 65.3639 27.272 62.2711 32.9352C61.9989 33.4338 62.2166 34.0417 62.7572 34.2928C62.9154 34.3662 63.0836 34.401 63.2493 34.401C63.6502 34.401 64.0365 34.1974 64.2292 33.8446C67.4394 27.9656 69.6618 20.2818 70.6566 11.6233C70.7204 11.0684 70.2842 10.5706 69.682 10.5118Z"
              fill="white"/>
        <path d="M69.9128 7.86193C69.9336 7.86294 69.954 7.86354 69.9746 7.86354C70.552 7.86354 71.0356 7.44707 71.0678 6.90868C71.1141 6.14204 71.1511 5.36124 71.1777 4.58813C71.1972 4.03013 70.7221 3.56331 70.1171 3.54552C69.5101 3.53096 69.0061 3.96584 68.9868 4.52364C68.9605 5.28078 68.9243 6.0454 68.8792 6.79627C68.8456 7.35386 69.3084 7.83099 69.9128 7.86193Z"
              fill="white"/>
        <path d="M89.2669 5.45299H76.5172C75.9117 5.45299 75.4211 5.90566 75.4211 6.46386V8.21225C75.4211 8.97809 74.9881 9.66123 74.3373 10.063C74.6043 7.21251 74.7415 4.28847 74.7415 1.32117C74.7415 0.762969 74.2509 0.310303 73.6454 0.310303H30.99C30.3845 0.310303 29.8939 0.762969 29.8939 1.32117C29.8939 4.28847 30.0312 7.21251 30.2982 10.063C29.6473 9.66123 29.2143 8.97829 29.2143 8.21225V6.46386C29.2143 5.90566 28.7237 5.45299 28.1183 5.45299H15.3685C14.7631 5.45299 14.2725 5.90566 14.2725 6.46386V8.21225C14.2725 15.9699 15.8532 22.1238 19.1053 27.0257C23.3036 33.3515 30.3041 37.528 39.9128 39.4473C41.9638 42.2009 44.2242 44.2319 46.6194 45.4742C45.8151 46.0092 45.2885 46.8783 45.2885 47.8607C45.2885 49.3348 46.471 50.5557 48.0061 50.7678C47.8661 51.7948 47.7385 52.8166 47.6146 53.8117C46.8215 60.1866 46.07 66.2166 42.2418 70.5478H41.0135C40.408 70.5478 39.9174 71.0005 39.9174 71.5587V73.7826H35.9064C35.3009 73.7826 34.8103 74.2352 34.8103 74.7934V90.4666H32.3014C31.6959 90.4666 31.2053 90.9192 31.2053 91.4774V94.7122C31.2053 95.2704 31.6959 95.7231 32.3014 95.7231H72.334C72.9395 95.7231 73.4301 95.2704 73.4301 94.7122V91.4774C73.4301 90.9192 72.9395 90.4666 72.334 90.4666H69.8251V74.7934C69.8251 74.2352 69.3345 73.7826 68.729 73.7826H64.718V71.5587C64.718 71.0005 64.2274 70.5478 63.6219 70.5478H62.3938C58.5654 66.2164 57.8139 60.186 57.0208 53.8107C56.8972 52.8158 56.7696 51.7944 56.6295 50.7678C58.1647 50.5557 59.3471 49.3348 59.3471 47.8607C59.3471 46.8783 58.8206 46.0092 58.0161 45.4742C60.4114 44.2319 62.6716 42.2007 64.7226 39.4473C74.3311 37.528 81.3316 33.3513 85.5301 27.0255C88.782 22.1236 90.3627 15.9699 90.3627 8.21225V6.46386C90.363 5.90566 89.8723 5.45299 89.2669 5.45299ZM73.5845 15.9389C76.8499 15.7311 79.6938 13.7787 80.8544 10.9715H84.3009C83.9859 16.3768 82.7149 20.6944 80.4265 24.1447C77.8375 28.0461 73.9793 30.8486 68.6753 32.669C70.9111 27.8275 72.5715 22.1299 73.5845 15.9389ZM35.9606 32.6692C30.6566 30.8488 26.7981 28.0463 24.2096 24.1451C21.9212 20.6949 20.6499 16.377 20.3347 10.9717H23.7815C24.9418 13.7789 27.7857 15.7313 31.0512 15.9391C32.0642 22.1299 33.7243 27.8275 35.9606 32.6692ZM20.975 25.9704C17.94 21.3954 16.4646 15.5867 16.4646 8.21225V7.47473H27.0224V8.21225C27.0224 10.1883 28.5306 11.8781 30.5402 12.336C30.602 12.8515 30.6695 13.3634 30.7399 13.8733C28.3182 13.549 26.2845 11.9254 25.6356 9.69823C25.5069 9.25648 25.0729 8.94958 24.577 8.94958H19.1908C18.894 8.94958 18.6099 9.06058 18.4034 9.25729C18.1969 9.454 18.0858 9.71946 18.0954 9.993C18.3142 16.2493 19.7025 21.2233 22.3397 25.1999C25.5199 29.9924 30.3946 33.2611 37.2211 35.1903C37.56 35.817 37.9066 36.4219 38.2615 37.0012C30.3464 35.0431 24.5384 31.3391 20.975 25.9704ZM71.238 93.7015H33.3975V92.4885H71.238V93.7015ZM67.6329 90.4668H37.0025V75.8045H67.6329V90.4668ZM42.1096 73.7828V72.5697H62.5258V73.7828H42.1096ZM44.9682 70.548C45.2657 70.1384 45.5415 69.7189 45.7995 69.2911H58.8361C59.0942 69.7191 59.3699 70.1384 59.6674 70.548H44.9682ZM57.7795 67.2692H46.8559C48.637 63.3191 49.2042 58.7712 49.7923 54.0424C49.9243 52.9828 50.0606 51.8931 50.211 50.8039H54.4246C54.575 51.8927 54.7116 52.982 54.8431 54.0411C55.4315 58.7708 55.9979 63.3189 57.7795 67.2692ZM56.156 48.7822H48.4792C47.9283 48.7822 47.4802 48.369 47.4802 47.8609C47.4802 47.3528 47.9283 46.9396 48.4792 46.9396H56.156C56.7069 46.9396 57.1552 47.3528 57.1552 47.8609C57.1552 48.369 56.7069 48.7822 56.156 48.7822ZM52.3179 44.8942C47.0817 44.8942 42.0822 40.4709 38.2398 32.4387C34.3855 24.3817 32.213 13.7241 32.0916 2.33204H72.5441C72.4224 13.7239 70.2502 24.3817 66.3959 32.4389C62.5536 40.4709 57.5539 44.8942 52.3179 44.8942ZM88.1708 8.21225C88.1708 15.5867 86.6954 21.3954 83.6606 25.9702C80.0972 31.3391 74.289 35.0429 66.3742 37.0016C66.7291 36.4223 67.0757 35.8174 67.4146 35.1907C74.241 33.2613 79.1158 29.9928 82.2962 25.2001C84.9334 21.2237 86.3215 16.2495 86.54 9.9934C86.5497 9.71966 86.4385 9.45421 86.232 9.25769C86.0257 9.06098 85.7416 8.94999 85.4446 8.94999H80.0586C79.5628 8.94999 79.1289 9.25689 79 9.69843C78.3511 11.9254 76.317 13.549 73.8957 13.8735C73.9661 13.3636 74.0336 12.8517 74.0955 12.3362C76.105 11.8783 77.6132 10.1885 77.6132 8.21246V7.47493H88.1708V8.21225Z"
              fill="white"/>
        <path d="M59.1139 78.5867H45.5224C44.9169 78.5867 44.4263 79.0393 44.4263 79.5975V86.6736C44.4263 87.2318 44.9169 87.6845 45.5224 87.6845H59.1139C59.7193 87.6845 60.2099 87.2318 60.2099 86.6736V79.5975C60.2099 79.0393 59.7191 78.5867 59.1139 78.5867ZM58.0178 85.6627H46.6184V80.6084H58.0178V85.6627Z"
              fill="white"/>
        <path d="M41.9054 76.8154H38.8363C38.2308 76.8154 37.7402 77.2681 37.7402 77.8263C37.7402 78.3845 38.2308 78.8372 38.8363 78.8372H41.9054C42.5108 78.8372 43.0015 78.3845 43.0015 77.8263C43.0015 77.2681 42.5108 76.8154 41.9054 76.8154Z"
              fill="white"/>
        <path d="M60.9775 83.4872C60.9775 84.0454 61.4682 84.4981 62.0736 84.4981H65.1427C65.7482 84.4981 66.2388 84.0454 66.2388 83.4872C66.2388 82.929 65.7482 82.4763 65.1427 82.4763H62.0736C61.4684 82.4763 60.9775 82.9288 60.9775 83.4872Z"
              fill="white"/>
        <path d="M40.3708 86.9241H38.8363C38.2308 86.9241 37.7402 87.3767 37.7402 87.9349C37.7402 88.4931 38.2308 88.9458 38.8363 88.9458H40.3708C40.9763 88.9458 41.4669 88.4931 41.4669 87.9349C41.4669 87.3767 40.9763 86.9241 40.3708 86.9241Z"
              fill="white"/>
        <path d="M46.7153 13.8796V15.0856H49.6673V23.9956H51.3593V11.4676H50.1173C49.8833 12.4396 49.5413 13.0516 49.1093 13.3036C48.6593 13.5736 47.8493 13.7536 46.7153 13.8796Z"
              fill="white"/>
    </g>
    <defs>
        <clipPath id="clip0">
            <rect width="103.457" height="95.413" fill="white" transform="translate(0.589355 0.310303)"/>
        </clipPath>
    </defs>
</svg>
